<svg data-v-0dd9719b="" version="1.0" xmlns="http://www.w3.org/2000/svg" xmlns:xlink="http://www.w3.org/1999/xlink" width="100%" height="100%" viewBox="0 0 340.000000 250.000000" preserveAspectRatio="xMidYMid meet" color-interpolation-filters="sRGB" style="margin: auto;"> <rect data-v-0dd9719b="" x="0" y="0" width="100%" height="100%" fill="#feffff" fill-opacity="1" class="background"></rect>  <g data-v-0dd9719b="" fill="#333" class="iconlinesvg-g iconlinesvg" transform="translate(77.59343266487122,109.3171501159668)"><g class="tp-name"><g transform="translate(0, 0)"><g data-gra="path-name" fill="#333" transform="scale(1)"><path d="M6.09-2.85L20.35-2.85L20.35 0L2.85 0L2.85-23.71L20.09-23.71L20.09-20.99L6.09-20.99L6.09-13.61L19.05-13.61L19.05-10.76L6.09-10.76L6.09-2.85Z" transform="translate(-2.85097192224622, 24.362850971922242)"></path></g></g><g transform="translate(21, 0)"><g data-gra="path-name" fill="#333" transform="scale(1)"><path d="M16.20-11.79L16.20-11.79L16.20 0L13.35 0L13.35-10.63Q13.61-15.42 9.59-15.16L9.59-15.16Q5.18-14.90 5.05-9.46L5.05-9.46L5.05 0L2.07 0L2.07-17.37L4.92-17.37L4.92-14.90Q7.00-17.88 10.24-17.88L10.24-17.88Q16.07-17.75 16.20-11.79Z" transform="translate(-2.0734341252699786, 24.362850971922242)"></path></g></g><g transform="translate(39, 0)"><g data-gra="path-name" fill="#333" transform="scale(1)"><path d="M2.20-23.71L5.18-23.71L5.18 0L2.20 0L2.20-23.71Z" transform="translate(-2.2030237580993517, 24.362850971922242)"></path></g></g><g transform="translate(45, 0)"><g data-gra="path-name" fill="#333" transform="scale(1)"><path d="M2.20-17.37L5.18-17.37L5.18 0L2.20 0L2.20-17.37ZM5.18-23.71L5.18-20.48L2.20-20.48L2.20-23.71L5.18-23.71Z" transform="translate(-2.2030237580993517, 24.362850971922242)"></path></g></g><g transform="translate(51, 0)"><g data-gra="path-name" fill="#333" transform="scale(1)"><path d="M4.41-8.68L4.41-8.68Q4.54-2.07 9.07-1.94L9.07-1.94Q13.61-2.33 13.74-7.78L13.74-7.78Q13.87-15.16 9.07-15.16L9.07-15.16Q4.28-15.16 4.41-8.68ZM13.74-17.37L16.46-17.37L16.46-1.43Q16.72 7.00 8.55 7.00L8.55 7.00Q2.46 7.00 1.81 1.81L1.81 1.81L4.79 1.81Q5.31 4.67 8.68 4.67L8.68 4.67Q13.87 4.67 13.61-1.17L13.61-1.17L13.61-1.94L13.61-1.81Q12.05 0.26 8.94 0.26L8.94 0.26Q1.68 0 1.30-9.20L1.30-9.20Q1.68-17.49 8.55-17.88L8.55-17.88Q11.79-17.88 13.74-14.90L13.74-14.90L13.74-17.37Z" transform="translate(-1.2958963282937366, 24.362850971922242)"></path></g></g><g transform="translate(70, 0)"><g data-gra="path-name" fill="#333" transform="scale(1)"><path d="M16.20-11.79L16.20-11.79L16.20 0L13.35 0L13.35-11.27Q13.48-15.29 9.85-15.16L9.85-15.16Q5.18-15.03 5.05-9.46L5.05-9.46L5.05 0L2.07 0L2.07-23.71L5.05-23.71L5.05-15.03L5.18-15.03Q7.26-17.88 10.24-17.88L10.24-17.88Q16.07-17.75 16.20-11.79Z" transform="translate(-2.0734341252699786, 24.362850971922242)"></path></g></g><g transform="translate(88, 0)"><g data-gra="path-name" fill="#333" transform="scale(1)"><path d="M8.55-17.37L8.55-14.90L5.70-14.90L5.70-3.63Q5.70-2.20 7.39-2.20L7.39-2.20L8.55-2.20L8.55 0Q7.78 0 6.74 0L6.74 0Q6.48 0 6.35 0L6.35 0Q2.59 0 2.72-3.37L2.72-3.37L2.72-14.90L0.52-14.90L0.52-17.37L2.72-17.37L2.72-22.16L5.70-22.16L5.70-17.37L8.55-17.37Z" transform="translate(-0.5183585313174947, 24.362850971922242)"></path></g></g><g transform="translate(100, 0)"><g data-gra="path-name" fill="#333" transform="scale(1)"><path d="M22.29-16.72L22.29-16.72L19.18-16.72Q18.01-21.51 12.57-21.64L12.57-21.64Q5.05-21.25 4.79-12.05L4.79-12.05Q4.79-2.20 12.70-2.20L12.70-2.20Q18.14-2.33 19.44-8.81L19.44-8.81L22.55-8.81Q21.12 0.13 12.05 0.39L12.05 0.39Q1.68 0 1.43-11.92L1.43-11.92Q1.94-23.84 12.57-24.36L12.57-24.36Q20.99-24.10 22.29-16.72Z" transform="translate(-1.42548596112311, 24.362850971922242)"></path></g></g><g transform="translate(125, 4.78315642229626)"><g><g class="imagesvg"><g><rect fill="#333" fill-opacity="0" stroke-width="2" x="0" y="0" width="21.771058315334773" height="21.7943783001159" class="image-rect"></rect> <svg filter="url(#colors6818394455)" x="0" y="0" width="21.771058315334773" height="21.7943783001159" filtersec="colorsf8760970879" class="image-svg-svg primary" style="overflow: visible;"><svg xmlns="http://www.w3.org/2000/svg" viewBox="1.2649993896484375 1.250999927520752 97.53199768066406 97.63600158691406"><path fill="#333333" d="M49.98 74.695c-13.504 0-24.627-11.02-24.627-24.626S36.476 25.553 49.98 25.553s24.626 11.02 24.626 24.626S63.586 74.695 49.98 74.695zm0-36.183c-6.376 0-11.558 5.181-11.558 11.557s5.182 11.557 11.557 11.557 11.558-5.181 11.558-11.557-5.182-11.558-11.558-11.558z"></path><circle fill="#333333" cx="89.57" cy="90.95" r="10.49" transform="matrix(.69 0 0 .69 15.5 15.5)"></circle><path fill="#333333" d="M49.98 98.886c-26.897 0-48.715-21.928-48.715-48.817S23.09 1.251 49.98 1.251 98.797 23.18 98.797 50.07c0 7.562-1.725 14.794-4.968 21.604L82.16 65.946c2.484-4.968 3.67-10.26 3.67-15.767 0-19.768-16.09-35.859-35.859-35.859S14.23 30.41 14.23 50.07s16.091 35.86 35.75 35.86a35.28 35.28 0 0 0 15.228-3.458l5.616 11.772c-6.479 3.022-13.496 4.643-20.845 4.643z"></path></svg></svg> <defs><filter id="colors6818394455"><feColorMatrix type="matrix" values="0 0 0 0 0.19921875  0 0 0 0 0.19921875  0 0 0 0 0.19921875  0 0 0 1 0" class="icon-fecolormatrix"></feColorMatrix></filter> <filter id="colorsf8760970879"><feColorMatrix type="matrix" values="0 0 0 0 0.99609375  0 0 0 0 0.99609375  0 0 0 0 0.99609375  0 0 0 1 0" class="icon-fecolormatrix"></feColorMatrix></filter> <filter id="colorsb485736442"><feColorMatrix type="matrix" values="0 0 0 0 0  0 0 0 0 0  0 0 0 0 0  0 0 0 1 0" class="icon-fecolormatrix"></feColorMatrix></filter></defs></g></g></g></g><g transform="translate(150, 0)"><g data-gra="path-name" fill="#333" transform="scale(1)"><path d="M13.61-23.71L16.46-23.71L16.46 0L13.74 0L13.74-2.33Q12.18 0.26 8.81 0.26L8.81 0.26Q1.56 0 1.17-9.20L1.17-9.20Q1.56-17.49 8.42-17.88L8.42-17.88Q11.14-17.88 13.35-15.29L13.35-15.29Q13.48-15.03 13.61-14.90L13.61-14.90L13.61-15.03L13.61-23.71ZM4.15-8.68L4.15-8.68Q4.41-2.20 8.81-1.94L8.81-1.94Q13.48-2.46 13.61-7.78L13.61-7.78Q13.61-15.16 8.94-15.16L8.94-15.16Q4.02-15.16 4.15-8.68Z" transform="translate(-1.166306695464363, 24.362850971922242)"></path></g></g><g transform="translate(169, 0)"><g data-gra="path-name" fill="#333" transform="scale(1)"><path d="M14.00-5.44L14.00-5.44L16.85-5.44Q16.33-2.46 13.74-0.65L13.74-0.65Q12.31 0.26 9.07 0.26L9.07 0.26Q1.68 0 1.30-8.16L1.30-8.16Q1.56-17.62 9.59-17.88L9.59-17.88Q16.98-17.75 17.11-7.65L17.11-7.65L4.41-7.65Q4.41-1.94 9.46-1.94L9.46-1.94Q13.09-2.20 14.00-5.44ZM4.41-9.98L4.41-9.98L14.13-9.98Q13.74-15.16 9.20-15.16L9.20-15.16Q4.92-14.77 4.41-9.98Z" transform="translate(-1.2958963282937366, 24.362850971922242)"></path></g></g></g> <!----></g><defs v-gra="od"></defs></svg>